<?xml version="1.0" encoding="UTF-8" standalone="no"?><!DOCTYPE svg PUBLIC "-//W3C//DTD SVG 1.1//EN" "http://www.w3.org/Graphics/SVG/1.1/DTD/svg11.dtd"><svg width="100%" height="100%" viewBox="0 0 21 24" version="1.1" xmlns="http://www.w3.org/2000/svg" xmlns:xlink="http://www.w3.org/1999/xlink" xml:space="preserve" xmlns:serif="http://www.serif.com/" style="fill-rule:evenodd;clip-rule:evenodd;stroke-linejoin:round;stroke-miterlimit:2;"><g><rect x="2.852" y="3.802" width="15.261" height="19.069" style="fill:#d6e5e5;"/><rect x="1.298" y="4.187" width="18.661" height="2.669" style="fill:#d6e5e5;"/><rect x="5.892" y="1.072" width="9.187" height="2.253" style="fill:#d6e5e5;"/><path d="M0,6.736l0,-1.638c0.031,-0.592 0.265,-1.091 0.702,-1.496c0.436,-0.406 0.951,-0.608 1.543,-0.608l2.245,-0l0,-0.749c0,-0.623 0.219,-1.154 0.655,-1.59c0.437,-0.437 0.967,-0.655 1.591,-0.655l7.484,0c0.623,0 1.153,0.218 1.59,0.655c0.437,0.436 0.655,0.967 0.655,1.59l-0,0.749l2.245,-0c0.593,-0 1.107,0.202 1.544,0.608c0.436,0.405 0.67,0.904 0.701,1.496l0,1.638c0,0.405 -0.148,0.756 -0.444,1.052c-0.296,0.296 -0.647,0.444 -1.053,0.444l0,12.723c0,0.842 -0.288,1.552 -0.865,2.129c-0.577,0.576 -1.286,0.865 -2.128,0.865l-11.975,-0c-0.842,-0 -1.551,-0.289 -2.128,-0.865c-0.577,-0.577 -0.865,-1.287 -0.865,-2.129l-0,-12.723c-0.406,0 -0.756,-0.148 -1.053,-0.444c-0.296,-0.296 -0.444,-0.647 -0.444,-1.052Zm1.497,-0l17.961,-0l0,-1.497c0,-0.218 -0.07,-0.398 -0.21,-0.538c-0.14,-0.14 -0.32,-0.211 -0.538,-0.211l-16.465,0c-0.218,0 -0.397,0.071 -0.538,0.211c-0.14,0.14 -0.21,0.32 -0.21,0.538l-0,1.497Zm1.497,14.219c-0,0.406 0.148,0.757 0.444,1.053c0.296,0.296 0.647,0.444 1.052,0.444l11.975,0c0.405,0 0.756,-0.148 1.052,-0.444c0.297,-0.296 0.445,-0.647 0.445,-1.053l-0,-12.723l-14.968,0l-0,12.723Zm1.496,-0.748l0,-9.729c0,-0.219 0.071,-0.398 0.211,-0.538c0.14,-0.141 0.32,-0.211 0.538,-0.211l1.497,0c0.218,0 0.397,0.07 0.538,0.211c0.14,0.14 0.21,0.319 0.21,0.538l0,9.729c0,0.218 -0.07,0.397 -0.21,0.538c-0.141,0.14 -0.32,0.21 -0.538,0.21l-1.497,0c-0.218,0 -0.398,-0.07 -0.538,-0.21c-0.14,-0.141 -0.211,-0.32 -0.211,-0.538Zm0.749,-0l1.497,-0l-0,-9.729l-1.497,-0l-0,9.729Zm0.748,-17.213l8.981,-0l0,-0.749c0,-0.218 -0.07,-0.397 -0.21,-0.538c-0.141,-0.14 -0.32,-0.21 -0.538,-0.21l-7.484,-0c-0.219,-0 -0.398,0.07 -0.538,0.21c-0.141,0.141 -0.211,0.32 -0.211,0.538l0,0.749Zm2.994,17.213l-0,-9.729c-0,-0.219 0.07,-0.398 0.21,-0.538c0.141,-0.141 0.32,-0.211 0.538,-0.211l1.497,0c0.218,0 0.398,0.07 0.538,0.211c0.14,0.14 0.211,0.319 0.211,0.538l-0,9.729c-0,0.218 -0.071,0.397 -0.211,0.538c-0.14,0.14 -0.32,0.21 -0.538,0.21l-1.497,0c-0.218,0 -0.397,-0.07 -0.538,-0.21c-0.14,-0.141 -0.21,-0.32 -0.21,-0.538Zm0.748,-0l1.497,-0l0,-9.729l-1.497,-0l0,9.729Zm3.742,-0l0,-9.729c0,-0.219 0.07,-0.398 0.211,-0.538c0.14,-0.141 0.319,-0.211 0.538,-0.211l1.496,0c0.219,0 0.398,0.07 0.538,0.211c0.141,0.14 0.211,0.319 0.211,0.538l-0,9.729c-0,0.218 -0.07,0.397 -0.211,0.538c-0.14,0.14 -0.319,0.21 -0.538,0.21l-1.496,0c-0.219,0 -0.398,-0.07 -0.538,-0.21c-0.141,-0.141 -0.211,-0.32 -0.211,-0.538Zm0.749,-0l1.496,-0l0,-9.729l-1.496,-0l-0,9.729Z" style="fill-rule:nonzero;"/></g></svg>