<?xml version="1.0" encoding="UTF-8" standalone="no"?><!DOCTYPE svg PUBLIC "-//W3C//DTD SVG 1.1//EN" "http://www.w3.org/Graphics/SVG/1.1/DTD/svg11.dtd"><svg width="100%" height="100%" viewBox="0 0 21 24" version="1.1" xmlns="http://www.w3.org/2000/svg" xmlns:xlink="http://www.w3.org/1999/xlink" xml:space="preserve" xmlns:serif="http://www.serif.com/" style="fill-rule:evenodd;clip-rule:evenodd;stroke-linecap:round;stroke-linejoin:round;stroke-miterlimit:1.5;"><path d="M0.451,6.569l8.797,-0.047c0.343,3.255 0.098,5.78 -0,7.911c-0.06,1.293 -0.755,2.037 -1.391,2.782c-1.045,1.225 -2.413,2.051 -4.125,2.335c-0.311,-0.251 -0.512,-0.779 -0.57,-1.664c1.799,-0.608 2.28,-1.797 2.431,-3.293l-5.142,0l0,-8.024Z" style="fill:#d6e5e5;stroke:#000;stroke-width:0.75px;"/><path d="M11.578,6.569l8.796,-0.047c0.343,3.255 0.099,5.78 -0,7.911c-0.06,1.293 -0.755,2.037 -1.391,2.782c-1.044,1.225 -2.412,2.051 -4.125,2.335c-0.311,-0.251 -0.512,-0.779 -0.57,-1.664c1.799,-0.608 2.28,-1.797 2.431,-3.293l-5.141,0l-0,-8.024Z" style="fill:#d6e5e5;stroke:#000;stroke-width:0.75px;"/></svg>